<?xml version="1.0" encoding="utf-8"?>
<svg xmlns="http://www.w3.org/2000/svg"
    xmlns:xlink="http://www.w3.org/1999/xlink">
    <defs>
        <svg fill="none" viewBox="0 0 25 24" id="arrow_down"
            xmlns="http://www.w3.org/2000/svg">
            <g clip-path="url(#aa)">
                <path d="m6.5 10 6 5 6-5" stroke="#737898" stroke-width="2" stroke-linecap="round" stroke-linejoin="round"/>
            </g>
            <defs>
                <clipPath id="aa">
                    <path fill="#fff" transform="translate(.5)" d="M0 0h24v24H0z"/>
                </clipPath>
            </defs>
        </svg>
        <svg fill="none" viewBox="0 0 17 17" id="arrow_up"
            xmlns="http://www.w3.org/2000/svg">
            <path d="m6.5 7.5 2-2m0 0 2 2m-2-2v7" stroke="#FF5151" stroke-linecap="round" stroke-linejoin="round"/>
        </svg>
        <svg fill="none" viewBox="0 0 24 24" id="dashboard"
            xmlns="http://www.w3.org/2000/svg">
            <path d="M3 13h8V3H3v10Zm0 8h8v-6H3v6Zm10 0h8V11h-8v10Zm0-18v6h8V3h-8Z" fill="#FF5151"/>
        </svg>
        <svg fill="none" viewBox="0 0 18 18" id="department"
            xmlns="http://www.w3.org/2000/svg">
            <path d="M9 0C4.032 0 0 4.032 0 9s4.032 9 9 9 9-4.032 9-9-4.032-9-9-9ZM5.4 13.95a2.25 2.25 0 1 1 0-4.5 2.25 2.25 0 0 1 0 4.5ZM6.75 5.4a2.25 2.25 0 1 1 4.5 0 2.25 2.25 0 0 1-4.5 0Zm5.85 8.55a2.25 2.25 0 1 1 0-4.5 2.25 2.25 0 0 1 0 4.5Z" fill="#B2B2B2"/>
        </svg>
        <svg fill="none" viewBox="0 0 20 20" id="employee"
            xmlns="http://www.w3.org/2000/svg">
            <path d="M13 6a3 3 0 1 1-6 0 3 3 0 0 1 6 0ZM18 8a2 2 0 1 1-4 0 2 2 0 0 1 4 0ZM6 8a2 2 0 1 1-4 0 2 2 0 0 1 4 0ZM16 18v-3a5.972 5.972 0 0 0-.75-2.906A3.004 3.004 0 0 1 19 15v3h-3ZM4.75 12.094A5.973 5.973 0 0 0 4 15v3H1v-3a3 3 0 0 1 3.75-2.906Z" fill="#B2B2B2"/>
            <rect x="6" y="11" width="8" height="7" rx="3" fill="#B2B2B2"/>
        </svg>
        <svg fill="none" viewBox="0 0 21 8" id="five_percents"
            xmlns="http://www.w3.org/2000/svg">
            <path d="M3.28 7.17a.231.231 0 0 1-.17-.07.231.231 0 0 1-.07-.17V4.98H1.12a.231.231 0 0 1-.17-.07.244.244 0 0 1-.07-.18v-.52c0-.073.023-.13.07-.17a.231.231 0 0 1 .17-.07h1.92v-1.9c0-.073.023-.13.07-.17a.231.231 0 0 1 .17-.07h.58c.073 0 .13.023.17.07.047.04.07.097.07.17v1.9h1.92c.073 0 .13.023.17.07.047.04.07.097.07.17v.52a.244.244 0 0 1-.07.18.231.231 0 0 1-.17.07H4.1v1.95a.231.231 0 0 1-.07.17.212.212 0 0 1-.17.07h-.58Zm6.423.44c-.554 0-1.03-.093-1.43-.28-.394-.187-.697-.433-.91-.74a1.869 1.869 0 0 1-.33-.99v-.02c0-.053.02-.097.06-.13.04-.033.09-.05.15-.05h.93c.153 0 .253.067.3.2.093.293.246.51.46.65.22.14.476.21.77.21.373 0 .683-.113.93-.34.253-.227.38-.543.38-.95 0-.36-.127-.653-.38-.88-.247-.227-.557-.34-.93-.34-.2 0-.364.027-.49.08a1.64 1.64 0 0 0-.37.22 1.99 1.99 0 0 1-.19.13c-.04.02-.09.03-.15.03h-.92a.239.239 0 0 1-.16-.06.239.239 0 0 1-.06-.16l.35-3.42a.271.271 0 0 1 .28-.27h3.76c.066 0 .123.023.17.07.046.047.07.103.07.17v.67a.232.232 0 0 1-.07.17.232.232 0 0 1-.17.07h-2.89l-.16 1.63c.326-.227.763-.34 1.31-.34.433 0 .833.093 1.2.28a2.142 2.142 0 0 1 1.22 1.98c0 .487-.114.913-.34 1.28-.227.36-.547.64-.96.84-.407.193-.884.29-1.43.29Zm5.06-3.59c-.44 0-.793-.117-1.06-.35-.26-.233-.403-.55-.43-.95a7.99 7.99 0 0 1-.01-.45c0-.2.004-.36.01-.48.027-.413.167-.74.42-.98.254-.24.61-.36 1.07-.36.46 0 .817.12 1.07.36.26.24.4.567.42.98.014.267.02.44.02.52 0 .073-.006.21-.02.41-.02.4-.163.717-.43.95-.26.233-.613.35-1.06.35Zm-.82 3.48a.226.226 0 0 1-.15-.05.204.204 0 0 1-.06-.15c0-.04.014-.077.04-.11l4.93-6.5a.564.564 0 0 1 .15-.14.321.321 0 0 1 .19-.05h.53c.067 0 .117.02.15.06.04.033.06.08.06.14 0 .04-.013.077-.04.11l-4.93 6.5a.795.795 0 0 1-.15.15.383.383 0 0 1-.19.04h-.53Zm.82-4.22c.194 0 .337-.057.43-.17a.8.8 0 0 0 .16-.44c.014-.227.02-.367.02-.42 0-.073-.006-.21-.02-.41a.667.667 0 0 0-.16-.43c-.093-.12-.236-.18-.43-.18-.193 0-.336.06-.43.18a.697.697 0 0 0-.15.43c-.006.1-.01.237-.01.41 0 .167.004.307.01.42.014.173.064.32.15.44.094.113.237.17.43.17Zm3.99 4.28c-.44 0-.793-.12-1.06-.36-.26-.247-.403-.573-.43-.98a7.99 7.99 0 0 1-.01-.45c0-.193.004-.35.01-.47.027-.413.167-.74.42-.98.254-.24.61-.36 1.07-.36.46 0 .817.12 1.07.36.26.24.4.567.42.98.014.267.02.437.02.51 0 .073-.006.21-.02.41-.026.407-.173.733-.44.98-.26.24-.61.36-1.05.36Zm0-.78c.2 0 .344-.057.43-.17a.786.786 0 0 0 .16-.43c.014-.227.02-.367.02-.42 0-.073-.006-.21-.02-.41a.71.71 0 0 0-.16-.44c-.093-.12-.236-.18-.43-.18-.193 0-.336.06-.43.18a.761.761 0 0 0-.16.44c-.006.1-.01.237-.01.41 0 .167.004.307.01.42.02.173.074.317.16.43.094.113.237.17.43.17Z" fill="#FF5151"/>
        </svg>
        <svg fill="none" viewBox="0 0 115 70" id="graph"
            xmlns="http://www.w3.org/2000/svg">
            <path d="M29.5 21.348c-13.718 2.708-29 21-29 21V69.5H115V1.347s-14.023-1.906-23 0c-16.104 3.421-19.222 21.035-35.5 23.5-10.513 1.593-16.569-5.56-27-3.5Z" fill="url(#ga)"/>
            <defs>
                <linearGradient id="ga" x1="36" y1="-19.5" x2="60.5" y2="43" gradientUnits="userSpaceOnUse">
                    <stop stop-color="#FF5151"/>
                    <stop offset="1" stop-color="#fff" stop-opacity="0"/>
                </linearGradient>
            </defs>
        </svg>
        <svg fill="none" viewBox="0 0 24 24" id="menu"
            xmlns="http://www.w3.org/2000/svg">
            <path d="M21 18H3v-2h18v2Zm0-5H3v-2h18v2Zm0-5H3V6h18v2Z" fill="#B2B2B2"/>
        </svg>
        <svg fill="none" viewBox="0 0 24 24" id="messages"
            xmlns="http://www.w3.org/2000/svg">
            <path d="M4 6.092c0-.554.21-1.087.586-1.48A1.956 1.956 0 0 1 6 4h12c.53 0 1.04.22 1.414.613.375.392.586.925.586 1.48v8.37c0 .554-.21 1.087-.586 1.479a1.956 1.956 0 0 1-1.414.613H8.414c-.265 0-.52.11-.707.306l-2.853 2.985a.479.479 0 0 1-.545.114.505.505 0 0 1-.225-.192.54.54 0 0 1-.084-.291V6.092Zm5 4.185c0-.277-.105-.543-.293-.74A.978.978 0 0 0 8 9.232c-.265 0-.52.11-.707.307a1.071 1.071 0 0 0-.293.74c0 .277.105.543.293.74a.978.978 0 0 0 .707.306c.265 0 .52-.11.707-.307.188-.196.293-.462.293-.74Zm4 0c0-.277-.105-.543-.293-.74A.978.978 0 0 0 12 9.232c-.265 0-.52.11-.707.307a1.071 1.071 0 0 0-.293.74c0 .277.105.543.293.74a.978.978 0 0 0 .707.306c.265 0 .52-.11.707-.307.188-.196.293-.462.293-.74Zm3 1.047c.265 0 .52-.11.707-.307.188-.196.293-.462.293-.74 0-.277-.105-.543-.293-.74A.978.978 0 0 0 16 9.232c-.265 0-.52.11-.707.307a1.071 1.071 0 0 0-.293.74c0 .277.105.543.293.74a.978.978 0 0 0 .707.306Z" fill="#B2B2B2"/>
        </svg>
        <svg fill="none" viewBox="0 0 24 24" id="notifications"
            xmlns="http://www.w3.org/2000/svg">
            <path d="M12.201 20c1.044 0 1.899-.738 1.899-1.641h-3.797c0 .435.2.853.556 1.16.356.308.839.481 1.342.481Zm5.695-4.923v-4.103c0-2.519-1.556-4.627-4.271-5.185V5.23c0-.681-.636-1.231-1.424-1.231-.788 0-1.424.55-1.424 1.23v.559c-2.724.558-4.271 2.658-4.271 5.185v4.103L5.28 16.135c-.598.517-.18 1.403.665 1.403h12.501c.845 0 1.272-.886.674-1.403l-1.225-1.058Z" fill="#B2B2B2"/>
            <circle cx="17" cy="7" r="4.5" fill="#FF5151" stroke="#fff"/>
        </svg>
        <svg fill="currenColor" viewBox="0 0 24 24" id="pin"
            xmlns="http://www.w3.org/2000/svg">
            <path d="M13.758 4a.572.572 0 0 1 .405.167l5.67 5.67a.573.573 0 0 1 0 .81c-.55.55-1.228.673-1.722.673-.203 0-.384-.02-.527-.044l-3.59 3.59c.095.38.156.768.184 1.16.052.804-.037 1.932-.825 2.72a.573.573 0 0 1-.81 0l-3.24-3.24-3.645 3.646c-.223.223-1.396 1.033-1.62.81-.223-.224.587-1.398.81-1.62l3.645-3.645-3.24-3.24a.573.573 0 0 1 0-.81c.789-.788 1.917-.879 2.721-.825.392.028.78.089 1.16.183l3.59-3.588a3.168 3.168 0 0 1-.046-.528c0-.493.124-1.17.675-1.722A.573.573 0 0 1 13.758 4Z"/>
        </svg>
        <svg fill="none" viewBox="0 0 24 24" id="recruitment"
            xmlns="http://www.w3.org/2000/svg">
            <path d="M5 8a4 4 0 1 0 8 0 4 4 0 0 0-8 0Z" fill="#B2B2B2"/>
            <rect x="3" y="14" width="12" height="6" rx="3" fill="#B2B2B2"/>
            <path fill-rule="evenodd" clip-rule="evenodd" d="M19 8h-2v2h-2v2h2v2h2v-2h2v-2h-2V8Z" fill="#B2B2B2"/>
        </svg>
        <svg fill="none" viewBox="0 0 16 18" id="schedule"
            xmlns="http://www.w3.org/2000/svg">
            <path d="M14.222 1.8h-1.778V0h-1.777v1.8H5.333V0H3.556v1.8H1.778A1.79 1.79 0 0 0 0 3.6v12.6c0 .993.797 1.8 1.778 1.8h12.444A1.79 1.79 0 0 0 16 16.2V3.6c0-.993-.797-1.8-1.778-1.8Zm-.889 13.5H8V9.9h5.333v5.4Zm.89-9H1.777V4.5h12.444v1.8Z" fill="#B2B2B2"/>
        </svg>
        <svg fill="none" viewBox="0 0 24 24" id="search"
            xmlns="http://www.w3.org/2000/svg">
            <path fill-rule="evenodd" clip-rule="evenodd" d="M14.23 8.17a4.4 4.4 0 1 1-6.364 6.077 4.4 4.4 0 0 1 6.365-6.077Zm1.783 7.079a6.401 6.401 0 1 0-1.157 1.105l1.692 1.771a.8.8 0 1 0 1.157-1.105l-1.692-1.771Z" fill="#B2B2B2"/>
        </svg>
        <svg fill="none" viewBox="0 0 18 18" id="settings"
            xmlns="http://www.w3.org/2000/svg">
            <path d="M10.37 18H7.094a.9.9 0 0 1-.879-.707l-.366-1.696a7.204 7.204 0 0 1-1.382-.798l-1.653.526a.9.9 0 0 1-1.053-.407L.119 12.082a.905.905 0 0 1 .174-1.116l1.282-1.17a7.29 7.29 0 0 1 0-1.594L.293 7.034a.905.905 0 0 1-.174-1.116l1.638-2.837a.9.9 0 0 1 1.053-.408l1.654.526c.22-.161.448-.313.684-.45.227-.127.461-.243.7-.347L6.217.708A.9.9 0 0 1 7.094 0h3.276a.9.9 0 0 1 .879.708l.37 1.695a7.373 7.373 0 0 1 1.382.798l1.654-.526a.9.9 0 0 1 1.052.408l1.638 2.837a.906.906 0 0 1-.173 1.115l-1.283 1.17c.058.53.058 1.065 0 1.595l1.283 1.17c.31.286.382.749.173 1.115l-1.638 2.838a.9.9 0 0 1-1.053.408l-1.653-.527c-.43.316-.892.584-1.38.797l-.372 1.692a.9.9 0 0 1-.879.707ZM8.73 5.4a3.6 3.6 0 1 0 0 7.2 3.6 3.6 0 0 0 0-7.2Z" fill="#B2B2B2"/>
        </svg>
        <svg viewBox="0 0 100 100" id="sprite.css"
            xmlns="http://www.w3.org/2000/svg"/>
        <svg fill="none" viewBox="0 0 24 24" id="support"
            xmlns="http://www.w3.org/2000/svg">
            <path d="M12 3c-4.963 0-9 4.037-9 9v3.729c0 .921.807 1.671 1.8 1.671h.9a.9.9 0 0 0 .9-.9v-4.629a.9.9 0 0 0-.9-.9h-.817C5.383 7.488 8.38 4.8 12 4.8s6.617 2.688 7.117 6.171H18.3a.9.9 0 0 0-.9.9V17.4c0 .993-.807 1.8-1.8 1.8h-1.8v-.9h-3.6V21h5.4c1.985 0 3.6-1.615 3.6-3.6.993 0 1.8-.75 1.8-1.671V12c0-4.963-4.037-9-9-9Z" fill="#B2B2B2"/>
        </svg>
        <svg fill="none" viewBox="0 0 24 24" id="three_dots"
            xmlns="http://www.w3.org/2000/svg">
            <path d="M5.778 13.556a1.778 1.778 0 1 0 0-3.556 1.778 1.778 0 0 0 0 3.556ZM12 13.556A1.778 1.778 0 1 0 12 10a1.778 1.778 0 0 0 0 3.556ZM18.222 13.556a1.778 1.778 0 1 0 0-3.556 1.778 1.778 0 0 0 0 3.556Z" fill="#B2B2B2"/>
        </svg>
        <svg fill="none" viewBox="0 0 21 8" id="two_percents"
            xmlns="http://www.w3.org/2000/svg">
            <path d="M3.28 7.17a.231.231 0 0 1-.17-.07.231.231 0 0 1-.07-.17V4.98H1.12a.231.231 0 0 1-.17-.07.244.244 0 0 1-.07-.18v-.52c0-.073.023-.13.07-.17a.231.231 0 0 1 .17-.07h1.92v-1.9c0-.073.023-.13.07-.17a.231.231 0 0 1 .17-.07h.58c.073 0 .13.023.17.07.047.04.07.097.07.17v1.9h1.92c.073 0 .13.023.17.07.047.04.07.097.07.17v.52a.244.244 0 0 1-.07.18.231.231 0 0 1-.17.07H4.1v1.95a.231.231 0 0 1-.07.17.212.212 0 0 1-.17.07h-.58Zm3.828.33a.231.231 0 0 1-.17-.07.231.231 0 0 1-.07-.17v-.51c0-.18.083-.337.25-.47l1.58-1.57c.687-.54 1.163-.96 1.43-1.26.273-.307.41-.607.41-.9 0-.313-.087-.56-.26-.74-.167-.18-.42-.27-.76-.27-.333 0-.597.1-.79.3a1.314 1.314 0 0 0-.36.76.31.31 0 0 1-.11.18.333.333 0 0 1-.18.05h-.89c-.06 0-.11-.02-.15-.06a.192.192 0 0 1-.06-.14c.013-.393.12-.76.32-1.1.2-.347.49-.623.87-.83.38-.213.827-.32 1.34-.32.533 0 .983.093 1.35.28.373.18.653.43.84.75.187.32.28.683.28 1.09 0 .447-.127.85-.38 1.21-.247.36-.627.747-1.14 1.16l-1.42 1.44h2.85c.073 0 .13.023.17.07.047.04.07.097.07.17v.71a.232.232 0 0 1-.07.17.212.212 0 0 1-.17.07h-4.78Zm7.421-3.48c-.44 0-.793-.117-1.06-.35-.26-.233-.403-.55-.43-.95a7.99 7.99 0 0 1-.01-.45c0-.2.004-.36.01-.48.027-.413.167-.74.42-.98.254-.24.61-.36 1.07-.36.46 0 .817.12 1.07.36.26.24.4.567.42.98.014.267.02.44.02.52 0 .073-.006.21-.02.41-.02.4-.163.717-.43.95-.26.233-.613.35-1.06.35Zm-.82 3.48a.226.226 0 0 1-.15-.05.204.204 0 0 1-.06-.15c0-.04.014-.077.04-.11l4.93-6.5a.564.564 0 0 1 .15-.14.321.321 0 0 1 .19-.05h.53c.067 0 .117.02.15.06.04.033.06.08.06.14 0 .04-.013.077-.04.11l-4.93 6.5a.795.795 0 0 1-.15.15.383.383 0 0 1-.19.04h-.53Zm.82-4.22c.194 0 .337-.057.43-.17a.8.8 0 0 0 .16-.44c.014-.227.02-.367.02-.42 0-.073-.006-.21-.02-.41a.667.667 0 0 0-.16-.43c-.093-.12-.236-.18-.43-.18-.193 0-.336.06-.43.18a.697.697 0 0 0-.15.43c-.006.1-.01.237-.01.41 0 .167.004.307.01.42.014.173.064.32.15.44.094.113.237.17.43.17Zm3.99 4.28c-.44 0-.793-.12-1.06-.36-.26-.247-.403-.573-.43-.98a7.99 7.99 0 0 1-.01-.45c0-.193.004-.35.01-.47.027-.413.167-.74.42-.98.254-.24.61-.36 1.07-.36.46 0 .817.12 1.07.36.26.24.4.567.42.98.014.267.02.437.02.51 0 .073-.006.21-.02.41-.026.407-.173.733-.44.98-.26.24-.61.36-1.05.36Zm0-.78c.2 0 .344-.057.43-.17a.786.786 0 0 0 .16-.43c.014-.227.02-.367.02-.42 0-.073-.006-.21-.02-.41a.71.71 0 0 0-.16-.44c-.093-.12-.236-.18-.43-.18-.193 0-.336.06-.43.18a.761.761 0 0 0-.16.44c-.006.1-.01.237-.01.41 0 .167.004.307.01.42.02.173.074.317.16.43.094.113.237.17.43.17Z" fill="#FF5151"/>
        </svg>
    </defs>
</svg>